<svg width="26" height="26" viewBox="0 0 26 26" fill="none" xmlns="http://www.w3.org/2000/svg">
<path d="M9.4 25H16.6C22.6 25 25 22.6 25 16.6V9.4C25 3.4 22.6 1 16.6 1H9.4C3.4 1 1 3.4 1 9.4V16.6C1 22.6 3.4 25 9.4 25Z" stroke="#222222" stroke-width="1.04174" stroke-linecap="round" stroke-linejoin="round"/>
<path d="M20.834 8.66443L16.5411 12.9573C16.1506 13.3478 15.5174 13.3478 15.1269 12.9573L14.0411 11.8715C13.6506 11.481 13.0174 11.481 12.6269 11.8715L9.16732 15.3311" stroke="#222222" stroke-linecap="round" stroke-linejoin="round"/>
<path d="M5.83398 6.16443V17.9644C5.83398 19.0845 5.83398 19.6446 6.05197 20.0724C6.24372 20.4487 6.54968 20.7547 6.926 20.9464C7.35383 21.1644 7.91388 21.1644 9.03398 21.1644H20.834" stroke="#222222" stroke-linecap="round"/>
</svg>
