<svg width="26" height="26" viewBox="0 0 26 26" fill="none" xmlns="http://www.w3.org/2000/svg">
<path d="M9.4 25H16.6C22.6 25 25 22.6 25 16.6V9.4C25 3.4 22.6 1 16.6 1H9.4C3.4 1 1 3.4 1 9.4V16.6C1 22.6 3.4 25 9.4 25Z" stroke="#222222" stroke-width="1.04174" stroke-linecap="round" stroke-linejoin="round"/>
<path d="M20.4174 15.9133H18.4017C17.8274 15.9133 17.5403 15.9133 17.3104 16.0441C17.2481 16.0795 17.1899 16.1215 17.1366 16.1694C16.9398 16.3462 16.849 16.6186 16.6674 17.1633V17.1633C16.4858 17.7081 16.395 17.9805 16.1982 18.1572C16.1449 18.2051 16.0867 18.2471 16.0244 18.2826C15.7945 18.4133 15.5074 18.4133 14.9331 18.4133H11.735C11.1608 18.4133 10.8737 18.4133 10.6437 18.2826C10.5815 18.2471 10.5232 18.2051 10.4699 18.1572C10.2731 17.9805 10.1823 17.7081 10.0007 17.1633V17.1633C9.81914 16.6186 9.72835 16.3462 9.53158 16.1694C9.47828 16.1215 9.42 16.0795 9.35772 16.0441C9.12781 15.9133 8.84069 15.9133 8.26645 15.9133H6.25073M16.8063 16.7467H9.86184" stroke="#222222"/>
<path d="M20.4174 12.5801H18.4017C17.8274 12.5801 17.5403 12.5801 17.3104 12.7109C17.2481 12.7463 17.1899 12.7883 17.1366 12.8362C16.9398 13.0129 16.849 13.2853 16.6674 13.8301V13.8301C16.4858 14.3749 16.395 14.6472 16.1982 14.824C16.1449 14.8719 16.0867 14.9139 16.0244 14.9493C15.7945 15.0801 15.5074 15.0801 14.9331 15.0801H11.735C11.1608 15.0801 10.8737 15.0801 10.6437 14.9493C10.5815 14.9139 10.5232 14.8719 10.4699 14.824C10.2731 14.6472 10.1823 14.3749 10.0007 13.8301V13.8301C9.81914 13.2853 9.72835 13.0129 9.53158 12.8362C9.47828 12.7883 9.42 12.7463 9.35772 12.7109C9.12781 12.5801 8.84069 12.5801 8.26645 12.5801H6.25073M16.8063 13.4134H9.86184" stroke="#222222"/>
<path d="M17.9174 12.9967V7.82607C17.9174 7.58148 17.9174 7.45919 17.8898 7.3441C17.8653 7.24206 17.8249 7.14452 17.77 7.05505C17.7082 6.95413 17.6217 6.86765 17.4488 6.6947L15.886 5.13196C15.7131 4.95901 15.6266 4.87253 15.5257 4.81069C15.4362 4.75586 15.3387 4.71546 15.2366 4.69096C15.1215 4.66333 14.9992 4.66333 14.7547 4.66333H11.1507C10.3107 4.66333 9.89061 4.66333 9.56975 4.82682C9.2875 4.97063 9.05803 5.2001 8.91422 5.48234C8.75073 5.80321 8.75073 6.22325 8.75073 7.06333V12.9967" stroke="#222222"/>
<path d="M14.584 4.66337L14.584 6.3967C14.584 6.95676 14.584 7.23678 14.693 7.45069C14.7889 7.63886 14.9418 7.79184 15.13 7.88771C15.3439 7.9967 15.6239 7.9967 16.184 7.9967L17.9173 7.9967" stroke="#222222"/>
<path d="M8.75073 8.41333L7.09427 10.0698C6.78295 10.3811 6.6273 10.5368 6.51598 10.7184C6.41729 10.8795 6.34456 11.055 6.30047 11.2387C6.25073 11.4459 6.25073 11.666 6.25073 12.1063V18.0333C6.25073 19.0414 6.25073 19.5455 6.44692 19.9305C6.61949 20.2692 6.89486 20.5446 7.23355 20.7171C7.61859 20.9133 8.12264 20.9133 9.13073 20.9133H17.5374C18.5455 20.9133 19.0495 20.9133 19.4346 20.7171C19.7733 20.5446 20.0486 20.2692 20.2212 19.9305C20.4174 19.5455 20.4174 19.0414 20.4174 18.0333V12.1063C20.4174 11.666 20.4174 11.4459 20.3677 11.2387C20.3236 11.055 20.2508 10.8795 20.1522 10.7184C20.0408 10.5368 19.8852 10.3811 19.5739 10.0698L17.9174 8.41333" stroke="#222222"/>
</svg>
