<svg width="26" height="26" viewBox="0 0 26 26" fill="none" xmlns="http://www.w3.org/2000/svg">
<path d="M9.4 25H16.6C22.6 25 25 22.6 25 16.6V9.4C25 3.4 22.6 1 16.6 1H9.4C3.4 1 1 3.4 1 9.4V16.6C1 22.6 3.4 25 9.4 25Z" stroke="#222222" stroke-width="1.04174" stroke-linecap="round" stroke-linejoin="round"/>
<path d="M15.5 10.5H20.5V18C20.5 18.7857 20.5 19.1785 20.2559 19.4226C20.0118 19.6667 19.619 19.6667 18.8333 19.6667H15.5V10.5Z" stroke="#222222" stroke-width="0.833333" stroke-linecap="round"/>
<path d="M5.5 10.5H10.5V19.6667H7.16667C6.38099 19.6667 5.98816 19.6667 5.74408 19.4226C5.5 19.1785 5.5 18.7857 5.5 18V10.5Z" stroke="#222222" stroke-width="0.833333" stroke-linecap="round"/>
<rect x="10.5" y="10.5" width="5" height="9.16667" stroke="#222222" stroke-width="0.833333" stroke-linecap="round"/>
<path d="M5.5 8.00004C5.5 7.21437 5.5 6.82153 5.74408 6.57745C5.98816 6.33337 6.38099 6.33337 7.16667 6.33337H18.8333C19.619 6.33337 20.0118 6.33337 20.2559 6.57745C20.5 6.82153 20.5 7.21437 20.5 8.00004V10.5H5.5V8.00004Z" stroke="#222222" stroke-width="0.833333" stroke-linecap="round"/>
</svg>
