<svg width="26" height="26" viewBox="0 0 26 26" fill="none" xmlns="http://www.w3.org/2000/svg">
<path d="M9.4 25H16.6C22.6 25 25 22.6 25 16.6V9.4C25 3.4 22.6 1 16.6 1H9.4C3.4 1 1 3.4 1 9.4V16.6C1 22.6 3.4 25 9.4 25Z" stroke="#222222" stroke-width="1.04174" stroke-linecap="round" stroke-linejoin="round"/>
<path d="M10.0833 13.4166L15.9166 13.4166" stroke="#222222" stroke-linecap="round"/>
<path d="M10.0833 15.9166L13.4166 15.9166" stroke="#222222" stroke-linecap="round"/>
<path d="M7.58325 8.31663C7.58325 7.47655 7.58325 7.05651 7.74674 6.73564C7.89055 6.4534 8.12002 6.22393 8.40227 6.08012C8.72313 5.91663 9.14317 5.91663 9.98325 5.91663H13.2558C13.6227 5.91663 13.8061 5.91663 13.9788 5.95807C14.1318 5.99482 14.2781 6.05542 14.4123 6.13767C14.5637 6.23043 14.6934 6.36014 14.9529 6.61957L17.7136 9.38035C17.9731 9.63978 18.1028 9.76949 18.1955 9.92087C18.2778 10.0551 18.3384 10.2014 18.3751 10.3544C18.4166 10.5271 18.4166 10.7105 18.4166 11.0774V17.6833C18.4166 18.5234 18.4166 18.9434 18.2531 19.2643C18.1093 19.5465 17.8798 19.776 17.5976 19.9198C17.2767 20.0833 16.8567 20.0833 16.0166 20.0833H9.98325C9.14317 20.0833 8.72313 20.0833 8.40227 19.9198C8.12002 19.776 7.89055 19.5465 7.74674 19.2643C7.58325 18.9434 7.58325 18.5234 7.58325 17.6833V8.31663Z" stroke="#222222"/>
<path d="M13.4167 5.91663V8.51663C13.4167 9.3567 13.4167 9.77674 13.5802 10.0976C13.724 10.3799 13.9535 10.6093 14.2358 10.7531C14.5566 10.9166 14.9767 10.9166 15.8167 10.9166H18.4167" stroke="#222222"/>
</svg>
