<svg width="40" height="40" viewBox="0 0 40 40" fill="none" xmlns="http://www.w3.org/2000/svg">
<path d="M0.731707 0.731707H39.2683V39.2683H0.731707V0.731707Z" stroke="#ED8B3B" stroke-width="1.46341"/>
<path d="M33.5317 15.651V9.30264C33.5317 8.0304 32.5 7 31.229 7H10.3393C9.03495 7 7.97625 8.05741 7.97625 9.36181V15.651M33.5317 15.651H7.97625M33.5317 15.651L33.5316 26.7615M7.97625 15.651L7.97625 22.4753M15.0501 29.8771H33.0942C34.7987 29.8771 36.1803 28.4943 36.1803 26.7898V10.1336C36.1095 9.86864 35.968 9.63066 35.7789 9.44156C35.4998 9.16241 35.1139 8.98875 34.6894 8.98875C34.2288 8.98875 33.8146 9.19329 33.5316 9.51489V26.7615M15.0501 29.8771C15.2752 29.2635 15.3987 28.601 15.3987 27.909C15.3987 27.6761 15.3845 27.4471 15.3575 27.2233M15.0501 29.8771C14.2486 32.055 12.1557 33.6077 9.69999 33.6077C6.5522 33.6077 4 31.0568 4 27.909C4 26.5029 4.50943 25.2166 5.3533 24.2222M15.3575 27.2233H33.0685C33.3245 27.2233 33.5316 27.0162 33.5316 26.7615M15.3575 27.2233C15.0192 24.3984 12.615 22.209 9.70001 22.209C9.09927 22.209 8.52039 22.3016 7.97625 22.4753M7.97625 22.4753V9.51489C7.95438 9.48916 7.93122 9.46472 7.90807 9.44156C7.62892 9.16241 7.24301 8.98875 6.8185 8.98875C5.96948 8.98875 5.27483 9.6834 5.27483 10.5324V23.7372C5.27483 23.907 5.30185 24.0691 5.3533 24.2222M7.97625 22.4753C6.94328 22.802 6.03766 23.4156 5.3533 24.2222M9.69999 30.4123C8.31712 30.4123 7.19539 29.2918 7.19539 27.909M9.69999 30.4123C11.0816 30.4123 12.2033 29.2918 12.2033 27.909C12.2033 26.5261 11.0829 25.4044 9.69999 25.4044C8.31712 25.4044 7.19539 26.5261 7.19539 27.909M9.69999 30.4123C8.31841 30.4123 7.19539 29.2918 7.19539 27.909M31.3538 23.413C31.3538 24.0125 30.8675 24.4987 30.2681 24.4987H22.7273C22.1278 24.4987 21.6416 24.0125 21.6416 23.413V19.1268C21.6416 18.5273 22.1278 18.0411 22.7273 18.0411H30.2681C30.8675 18.0411 31.3538 18.5273 31.3538 19.1268V23.413ZM32.2517 30.3389V33.1445C32.2517 33.3993 32.0433 33.6076 31.7886 33.6076H29.6262C29.3715 33.6076 29.1644 33.3993 29.1644 33.1445V30.3389C29.1644 30.0842 29.3715 29.8771 29.6262 29.8771H31.7886C32.0433 29.8771 32.2517 30.0842 32.2517 30.3389Z" stroke="#ED8B3B" stroke-width="1.28639" stroke-miterlimit="10"/>
</svg>
